<?xml version="1.0" encoding="UTF-8"?>
<svg width="48px" height="48px" viewBox="0 0 48 48" version="1.1" xmlns="http://www.w3.org/2000/svg" xmlns:xlink="http://www.w3.org/1999/xlink">
    <title>favicon.ico</title>
    <g id="favicon.ico" stroke="none" stroke-width="1" fill="none" fill-rule="evenodd">
        <g id="favicons-/-favicon-ico-f-48x48">
            <rect id="Background" fill="#FFFFFF" x="0" y="0" width="48" height="48" rx="2"></rect>
            <path d="M24,44.9638062 C34,34.5107829 39,25.5228475 39,18 C39,9.71572875 32.2842712,3 24,3 C15.7157288,3 9,9.71572875 9,18 C9,25.5228475 14,34.5107829 24,44.9638062 Z" id="Oval" fill="#76B3A6"></path>
            <path d="M24,7.5 C24.8284271,7.5 25.5,8.17157288 25.5,9 L25.499,15.878 L30.363961,11.0147186 C30.9497475,10.4289322 31.8994949,10.4289322 32.4852814,11.0147186 C33.0710678,11.6005051 33.0710678,12.5502525 32.4852814,13.136039 L27.622,17.999 L34.5,18 C35.3284271,18 36,18.6715729 36,19.5 C36,20.3284271 35.3284271,21 34.5,21 L27.621,20.999 L32.4852814,25.863961 C33.0710678,26.4497475 33.0710678,27.3994949 32.4852814,27.9852814 C31.8994949,28.5710678 30.9497475,28.5710678 30.363961,27.9852814 L25.499,23.121 L25.5,30 C25.5,30.8284271 24.8284271,31.5 24,31.5 C23.1715729,31.5 22.5,30.8284271 22.5,30 L22.499,23.122 L17.636039,27.9852814 C17.0502525,28.5710678 16.1005051,28.5710678 15.5147186,27.9852814 C14.9289322,27.3994949 14.9289322,26.4497475 15.5147186,25.863961 L20.378,20.999 L13.5,21 C12.6715729,21 12,20.3284271 12,19.5 C12,18.6715729 12.6715729,18 13.5,18 L20.377,17.999 L15.5147186,13.136039 C14.9289322,12.5502525 14.9289322,11.6005051 15.5147186,11.0147186 C16.1005051,10.4289322 17.0502525,10.4289322 17.636039,11.0147186 L22.499,15.877 L22.5,9 C22.5,8.17157288 23.1715729,7.5 24,7.5 Z" id="Combined-Shape" fill="#FFFFFF"></path>
        </g>
    </g>
</svg>