<svg viewBox="0 0 165 42" fill="none" xmlns="http://www.w3.org/2000/svg"><path fill-rule="evenodd" clip-rule="evenodd" d="M59.0556 7.99458C59.0556 10.3931 58.2249 11.4248 56.17 11.4248C54.1501 11.4248 53.2756 10.349 53.2756 7.99458C53.2756 5.64019 54.1238 4.58203 56.17 4.58203C58.2249 4.58203 59.0556 5.64019 59.0556 7.99458ZM57.5166 7.99458C57.5166 6.31917 57.1756 5.91354 56.17 5.91354C55.1732 5.91354 54.8234 6.31917 54.8234 7.99458C54.8234 9.66999 55.1819 10.0933 56.1788 10.0933C57.1669 10.0933 57.5166 9.66117 57.5166 7.99458ZM65.7528 6.95406C65.7528 8.3473 65.0183 9.14973 63.1907 9.14973H62.3163V11.3013H60.8385V4.68785H63.1907C65.0095 4.68785 65.7528 5.41092 65.7528 6.95406ZM64.2313 6.94524C64.2313 6.15163 63.9515 5.93118 63.1907 5.93118H62.3163V7.95931H63.1907C63.9165 7.95931 64.2313 7.77413 64.2313 6.94524ZM68.8998 10.0051H71.9166L71.8816 11.3013H67.422V4.68785H71.7504L71.7767 6.00172H68.8998V7.3156H71.322V8.4972H68.8998V10.0051ZM78.9023 11.3013H77.8705L75.3259 7.69477L74.9324 7.10397L74.9149 7.11278L74.9237 7.82704V11.3013H73.612V4.68785H74.8712L77.2059 8.1004L77.5994 8.6912L77.6169 8.68238L77.5994 7.97694V4.68785H78.9023V11.3013ZM91.4747 7.96813C91.4747 10.3578 90.4866 11.3013 88.5454 11.3013H86.0707V4.68785H88.5279C90.609 4.68785 91.4747 5.68428 91.4747 7.96813ZM89.927 7.95931C89.927 6.38971 89.551 6.01936 88.5104 6.01936H87.5485V9.97862H88.5191C89.5247 9.97862 89.927 9.65236 89.927 7.95931ZM97.1313 11.3013L96.764 10.0139H94.3856L94.0183 11.3013H92.4618L94.7266 4.68785H96.4842L98.7752 11.3013H97.1313ZM95.5836 5.80773L95.3999 6.50435L94.7441 8.77056H96.4143L95.7847 6.50435L95.6098 5.80773H95.5836ZM104.135 6.02818H102.368V11.3013H100.882V6.02818H99.124L99.159 4.68785H104.1L104.135 6.02818ZM109.153 11.3013L108.786 10.0139H106.407L106.04 11.3013H104.483L106.748 4.68785H108.506L110.797 11.3013H109.153ZM107.605 5.80773L107.421 6.50435L106.766 8.77056H108.436L107.806 6.50435L107.631 5.80773H107.605ZM53.6167 23.5485V16.935H55.1207V23.5485H53.6167ZM62.5262 23.5485H61.4943L58.9497 19.9419L58.5562 19.3511L58.5387 19.3599L58.5475 20.0742V23.5485H57.2358V16.935H58.495L60.8298 20.3476L61.2232 20.9384L61.2407 20.9295L61.2232 20.2241V16.935H62.5262V23.5485ZM68.8998 18.2753H66.0229V19.7038H68.4188L68.4014 20.9736H66.0229V23.5485H64.5539V16.935H68.8736L68.8998 18.2753ZM75.9555 20.2417C75.9555 22.6402 75.1248 23.6719 73.0699 23.6719C71.0499 23.6719 70.1755 22.5961 70.1755 20.2417C70.1755 17.8873 71.0237 16.8292 73.0699 16.8292C75.1248 16.8292 75.9555 17.8873 75.9555 20.2417ZM74.4165 20.2417C74.4165 18.5663 74.0755 18.1607 73.0699 18.1607C72.073 18.1607 71.7232 18.5663 71.7232 20.2417C71.7232 21.9172 72.0817 22.3404 73.0786 22.3404C74.0667 22.3404 74.4165 21.9083 74.4165 20.2417ZM82.5827 18.9896C82.5827 19.9155 82.1892 20.568 81.4809 20.7885L83.0112 23.5485H81.2885L80.143 21.0794H79.2161V23.5485H77.7384V16.935H80.143C81.7695 16.935 82.5827 17.5787 82.5827 18.9896ZM81.0437 19.0513C81.0437 18.3812 80.7989 18.1695 80.1518 18.1695H79.2161V19.9684H80.1256C80.7814 19.9684 81.0437 19.7656 81.0437 19.0513ZM84.4618 16.935H86.0882L87.6097 20.7973L87.8546 21.4586H87.8808L88.1256 20.7973L89.6559 16.935H91.2823V23.5485H89.9357V20.18L89.9532 19.4658L89.927 19.4569L89.6821 20.1271L88.3355 23.5485H87.3561L86.0183 20.1359L85.7734 19.4658L85.7559 19.4746L85.7647 20.1888V23.5485H84.4618V16.935ZM97.4024 23.5485L97.0351 22.2611H94.6567L94.2894 23.5485H92.7329L94.9977 16.935H96.7553L99.0463 23.5485H97.4024ZM95.8546 18.0549L95.671 18.7515L95.0152 21.0177H96.6853L96.0558 18.7515L95.8809 18.0549H95.8546ZM104.406 18.2753H102.639V23.5485H101.153V18.2753H99.3951L99.4301 16.935H104.371L104.406 18.2753ZM106.005 23.5485V16.935H107.509V23.5485H106.005ZM115.159 20.2417C115.159 22.6402 114.328 23.6719 112.274 23.6719C110.254 23.6719 109.379 22.5961 109.379 20.2417C109.379 17.8873 110.227 16.8292 112.274 16.8292C114.328 16.8292 115.159 17.8873 115.159 20.2417ZM113.62 20.2417C113.62 18.5663 113.279 18.1607 112.274 18.1607C111.277 18.1607 110.927 18.5663 110.927 20.2417C110.927 21.9172 111.285 22.3404 112.282 22.3404C113.27 22.3404 113.62 21.9083 113.62 20.2417ZM122.232 23.5485H121.201L118.656 19.9419L118.262 19.3511L118.245 19.3599L118.254 20.0742V23.5485H116.942V16.935H118.201L120.536 20.3476L120.929 20.9384L120.947 20.9295L120.929 20.2241V16.935H122.232V23.5485ZM128.431 21.5644C128.431 22.8695 127.53 23.6719 126 23.6719C125.239 23.6719 124.54 23.4867 123.972 23.1781L124.164 21.8995C124.741 22.2081 125.336 22.3845 125.983 22.3845C126.7 22.3845 127.015 22.12 127.015 21.6614C127.015 20.6209 123.998 21.0618 123.998 18.8485C123.998 17.7286 124.715 16.8204 126.376 16.8204C127.015 16.8204 127.705 16.9526 128.213 17.1643L128.029 18.4164C127.487 18.2401 126.945 18.1343 126.446 18.1343C125.633 18.1343 125.414 18.4164 125.414 18.7691C125.414 19.8008 128.431 19.3247 128.431 21.5644ZM134.263 21.5644C134.263 22.8695 133.362 23.6719 131.832 23.6719C131.071 23.6719 130.371 23.4867 129.803 23.1781L129.995 21.8995C130.573 22.2081 131.167 22.3845 131.814 22.3845C132.531 22.3845 132.846 22.12 132.846 21.6614C132.846 20.6209 129.829 21.0618 129.829 18.8485C129.829 17.7286 130.546 16.8204 132.208 16.8204C132.846 16.8204 133.537 16.9526 134.044 17.1643L133.86 18.4164C133.318 18.2401 132.776 18.1343 132.278 18.1343C131.464 18.1343 131.246 18.4164 131.246 18.7691C131.246 19.8008 134.263 19.3247 134.263 21.5644ZM140.479 18.2753H138.712V23.5485H137.226V18.2753H135.468L135.503 16.935H140.444L140.479 18.2753ZM143.46 22.2522H146.476L146.441 23.5485H141.982V16.935H146.31L146.337 18.2489H143.46V19.5628H145.882V20.7444H143.46V22.2522ZM149.658 22.2081H152.36L152.325 23.5485H148.172V16.935H149.658V22.2081ZM155.402 22.2081H158.104L158.069 23.5485H153.916V16.935H155.402V22.2081ZM161.138 22.2522H164.155L164.12 23.5485H159.66V16.935H163.988L164.015 18.2489H161.138V19.5628H163.56V20.7444H161.138V22.2522ZM58.2512 33.9439C58.2512 35.1167 57.709 35.7956 56.2749 35.7956H53.8702V29.1822H56.1438C57.3592 29.1822 57.9713 29.7024 57.9713 30.8047C57.9713 31.6688 57.5604 32.1274 57.0095 32.2861V32.3037C57.779 32.4625 58.2512 32.9651 58.2512 33.9439ZM57.6828 33.8998C57.6828 33.0003 57.2106 32.5859 56.2487 32.5859H54.4211V35.2842H56.2837C57.1581 35.2842 57.6828 34.9227 57.6828 33.8998ZM57.4204 30.9017C57.4204 30.0463 57.0095 29.7024 56.1263 29.7024H54.4299V32.1097H56.1962C57.0182 32.1097 57.4204 31.7041 57.4204 30.9017ZM61.197 35.2489H64.6773L64.651 35.7956H60.6286V29.1822H64.4936L64.5199 29.7289H61.197V32.0833H64.0739V32.5771H61.197V35.2489ZM70.9285 30.9722C70.9285 32.048 70.4388 32.6124 69.5294 32.7182L71.3569 35.7956H70.6574L68.9785 32.824H67.457V35.7956H66.8799V29.1822H69.0047C70.3251 29.1822 70.9285 29.7642 70.9285 30.9722ZM70.3339 30.9987C70.3339 30.0728 69.9229 29.7024 69.0047 29.7024H67.457V32.3478H68.9523C69.9054 32.3478 70.3339 31.9598 70.3339 30.9987ZM73.9355 35.2313H77.1884L77.1622 35.7956H73.3584V29.1822H73.9355V35.2313ZM79.2948 35.7956V29.1822H79.872V35.7956H79.2948ZM87.4523 35.7956H87.0238L83.6311 30.6812L83.2463 30.0816L83.2288 30.0904L83.2376 30.8047V35.7956H82.7129V29.1822H83.2813L86.5604 34.1731L86.9451 34.7728L86.9626 34.7639L86.9451 34.0585L86.9364 29.1822H87.4523V35.7956Z" fill="#333333"></path><path d="M34.1874 23.8236C34.1874 14.5848 26.6992 7.09538 17.4621 7.09538C8.22499 7.09538 0.736816 14.5848 0.736816 23.8236C0.736816 33.0623 8.22499 40.5518 17.4621 40.5518C26.6992 40.5518 34.1874 33.0623 34.1874 23.8236Z" stroke="#333333" stroke-width="1.74242"></path><path d="M40.3223 5.3722C40.3223 3.05149 38.4413 1.17018 36.121 1.17018C33.8007 1.17018 31.9197 3.05149 31.9197 5.3722C31.9197 7.69291 33.8007 9.57422 36.121 9.57422C38.4413 9.57422 40.3223 7.69291 40.3223 5.3722Z" stroke="#333333" stroke-width="1.74242"></path></svg>